<?xml version="1.0" encoding="utf-8"?>
<!-- Generator: Adobe Illustrator 16.0.4, SVG Export Plug-In . SVG Version: 6.00 Build 0)  -->
<!DOCTYPE svg PUBLIC "-//W3C//DTD SVG 1.1//EN" "http://www.w3.org/Graphics/SVG/1.1/DTD/svg11.dtd">
<svg version="1.1" id="Layer_1" xmlns="http://www.w3.org/2000/svg" xmlns:xlink="http://www.w3.org/1999/xlink" x="0px" y="0px"
	 width="20px" height="40px" viewBox="0 0 20 40" style="enable-background:new 0 0 20 40;" xml:space="preserve">
<rect style="fill:#FFFFFF;" width="20" height="40"/>
<line style="fill:none;stroke:#000000;stroke-miterlimit:10;" x1="9" y1="2.5" x2="18" y2="2.5"/>
<line style="fill:none;stroke:#000000;stroke-miterlimit:10;" x1="9" y1="4.5" x2="18" y2="4.5"/>
<line style="fill:none;stroke:#000000;stroke-miterlimit:10;" x1="9" y1="6.5" x2="18" y2="6.5"/>
<line style="fill:none;stroke:#000000;stroke-miterlimit:10;" x1="2" y1="8.5" x2="18" y2="8.5"/>
<line style="fill:none;stroke:#000000;stroke-miterlimit:10;" x1="2" y1="10.5" x2="18" y2="10.5"/>
<line style="fill:none;stroke:#000000;stroke-miterlimit:10;" x1="2" y1="12.5" x2="12" y2="12.5"/>
<line style="fill:none;stroke:#000000;stroke-miterlimit:10;" x1="2" y1="14.5" x2="18" y2="14.5"/>
<line style="fill:none;stroke:#000000;stroke-miterlimit:10;" x1="2" y1="16.5" x2="18" y2="16.5"/>
<line style="fill:none;stroke:#000000;stroke-miterlimit:10;" x1="2" y1="18.5" x2="18" y2="18.5"/>
<line style="fill:none;stroke:#000000;stroke-miterlimit:10;" x1="2" y1="20.5" x2="18" y2="20.5"/>
<line style="fill:none;stroke:#000000;stroke-miterlimit:10;" x1="2" y1="24.5" x2="18" y2="24.5"/>
<line style="fill:none;stroke:#000000;stroke-miterlimit:10;" x1="2" y1="22.5" x2="18" y2="22.5"/>
<line style="fill:none;stroke:#000000;stroke-miterlimit:10;" x1="2" y1="26.5" x2="14" y2="26.5"/>
<line style="fill:none;stroke:#000000;stroke-miterlimit:10;" x1="2" y1="28.5" x2="18" y2="28.5"/>
<line style="fill:none;stroke:#000000;stroke-miterlimit:10;" x1="2" y1="32.5" x2="18" y2="32.5"/>
<line style="fill:none;stroke:#000000;stroke-miterlimit:10;" x1="2" y1="30.5" x2="18" y2="30.5"/>
<line style="fill:none;stroke:#000000;stroke-miterlimit:10;" x1="2" y1="34.5" x2="18" y2="34.5"/>
<line style="fill:none;stroke:#000000;stroke-miterlimit:10;" x1="2" y1="36.5" x2="7" y2="36.5"/>
<rect x="2" y="2" width="6" height="5"/>
</svg>
